# xmcd
#
# Track frame offsets:
#	150
#	19776
#	37230
#	57249
#	79012
#	91792
#	109942
#	125897
#	138728
#	157375
#	171950
#	189412
#	210908
#
# Disc length: 3020 seconds
#
# Revision: 0
# Processed by: cddbd v1.5PL3 Copyright (c) Steve Scherf et al.
# Submitted via: dBpowerAMP V4.0
#
DISCID=ba0bca0d
DTITLE=Tiziano Ferro - 111
DYEAR=2003
DGENRE=Folk/Rock
TTITLE0=Centoundici
TTITLE1=Xverso
TTITLE2=Sere nere
TTITLE3=Ti voglio bene
TTITLE4=In bagno in aereporto
TTITLE5=Non me lo so spiegare
TTITLE6=Mia nonna
TTITLE7=10 piegamenti
TTITLE8=Temple bar
TTITLE9=Giugno '84
TTITLE10=Eri come l'oro ora sei come loro
TTITLE11=Chi non ha talento insegna
TTITLE12=13 anni
EXTD=
EXTT0=
EXTT1=
EXTT2=
EXTT3=
EXTT4=
EXTT5=
EXTT6=
EXTT7=
EXTT8=
EXTT9=
EXTT10=
EXTT11=
EXTT12=
PLAYORDER=
